<svg xmlns="http://www.w3.org/2000/svg" width="7" height="10" viewBox="0 0 7 10" fill="none">
  <path fill-rule="evenodd" clip-rule="evenodd" d="M3.1325 0.89563C3.25116 0.89563 3.36497 0.942771 3.44888 1.02668C3.53279 1.11059 3.57993 1.2244 3.57993 1.34307L3.57993 9.39695C3.57993 9.51562 3.53279 9.62943 3.44888 9.71334C3.36497 9.79725 3.25116 9.84439 3.1325 9.84439C3.01383 9.84439 2.90002 9.79725 2.81611 9.71334C2.7322 9.62943 2.68506 9.51562 2.68506 9.39695L2.68506 1.34307C2.68506 1.2244 2.7322 1.11059 2.81611 1.02668C2.90002 0.942771 3.01383 0.89563 3.1325 0.89563Z" fill="#07484A"/>
  <path fill-rule="evenodd" clip-rule="evenodd" d="M2.81585 0.131452C2.85741 0.0897834 2.90678 0.0567242 2.96114 0.0341675C3.0155 0.0116109 3.07378 0 3.13263 0C3.19149 0 3.24976 0.0116109 3.30412 0.0341675C3.35848 0.0567242 3.40785 0.0897834 3.44942 0.131452L6.13405 2.81608C6.21806 2.9001 6.26526 3.01405 6.26526 3.13287C6.26526 3.25168 6.21806 3.36564 6.13405 3.44965C6.05003 3.53367 5.93608 3.58087 5.81726 3.58087C5.69844 3.58087 5.58449 3.53367 5.50047 3.44965L3.13263 1.08092L0.76479 3.44965C0.680773 3.53367 0.566821 3.58087 0.448003 3.58087C0.329186 3.58087 0.215234 3.53367 0.131217 3.44965C0.0472003 3.36564 0 3.25168 0 3.13287C0 3.01405 0.0472003 2.9001 0.131217 2.81608L2.81585 0.131452Z" fill="#07484A"/>
</svg>